<svg width="233" height="231" viewBox="0 0 233 231" fill="none" xmlns="http://www.w3.org/2000/svg">
<path fill-rule="evenodd" clip-rule="evenodd" d="M47.3631 181.329C44.2818 175.167 41.2006 170.031 39.1464 164.896C37.0922 160.788 40.1735 155.652 44.2818 155.652C48.3902 155.652 50.4443 157.706 50.4443 161.815C50.4443 163.869 49.4172 165.923 47.3631 166.95C49.4172 170.031 51.4714 174.14 53.5256 177.221C67.9048 167.977 81.2569 159.761 93.5819 152.571C44.2818 123.813 5.25261 83.7563 0.117188 0.5625C9.36095 33.4292 42.2277 26.2396 61.7423 45.7542C64.8235 91.973 84.3381 114.569 116.178 137.165C148.017 114.569 167.532 91.973 169.586 45.7542C190.128 26.2396 222.995 33.4292 232.238 0.5625C227.103 83.7563 188.074 123.813 138.774 152.571C151.099 159.761 164.451 167.977 178.83 177.221C180.884 174.14 181.911 170.031 183.965 166.95C182.938 165.923 180.884 163.869 180.884 161.815C180.884 157.706 183.965 155.652 187.047 155.652C192.182 155.652 195.263 160.788 193.209 164.896C191.155 170.031 187.047 175.167 184.992 181.329C197.317 189.546 209.642 198.79 221.967 207.006C227.103 205.979 232.238 210.088 232.238 214.196C232.238 220.359 226.076 223.44 220.94 221.386C201.426 243.982 163.424 222.413 172.667 191.6C154.18 182.356 134.665 174.14 116.178 164.896C97.6902 174.14 78.1756 182.356 58.661 191.6C67.9048 222.413 30.9297 243.982 11.4151 221.386C6.27969 223.44 0.117188 220.359 0.117188 214.196C0.117188 210.088 5.25261 205.979 9.36095 207.006C21.686 198.79 35.0381 189.546 47.3631 181.329ZM179.857 194.681C192.182 200.844 204.507 207.006 216.832 214.196C202.453 234.738 173.694 216.25 179.857 194.681ZM52.4985 194.681C40.1735 200.844 26.8214 207.006 15.5235 214.196C28.8756 234.738 58.661 216.25 52.4985 194.681Z" fill="#FBFBFB"/>
</svg>
